<svg xmlns="http://www.w3.org/2000/svg" width="288.8" height="288.8" style="enable-background:new 0 0 288.8 288.8" xml:space="preserve"><path d="m266.4 214.3-122 69.9-122-69.9V74.5l122-69.9 122 69.9v139.8z" style="stroke:#dbb778;stroke-width:8;stroke-miterlimit:10"/><path d="M113.5 209.1h-.3c-4.8 0-8.9-1.4-12.4-4-3.3-2.8-5-6.3-5-10.3V94.1c0-3.9 1.7-7.3 5-10.1 3.5-2.8 7.7-4.3 12.7-4.3h53c4.8 0 8.9 1.4 12.4 4.3s5.2 6.2 5.2 10.1v22.4c.2 1.7 1 3.1 2.5 4.3 1.7 1.3 3.8 2 6.4 2h-35.3c2.4 0 4.4-.7 6.1-2 1.5-1.2 2.4-2.6 2.8-4.3v-15.9c-.4-1.6-1.3-3.1-2.8-4.3-1.5-1.3-3.2-2.1-5.2-2.2h-37c-2.2.2-4.1.9-5.5 2.2-1.5 1.2-2.3 2.6-2.5 4.3v87.8c.2 1.6 1 3.1 2.5 4.3 1.5 1.2 3.3 1.9 5.5 2h37c2-.1 3.8-.8 5.2-2s2.4-2.6 2.8-4.3v-36.8h-27.3c-2.2.1-4.1.9-5.5 2.2-1.7 1.4-2.5 3-2.5 4.9V130c0 2.1.8 3.8 2.5 5.2 1.5 1.2 3.3 1.9 5.5 2h36.1c2.4 0 4.4.8 6.1 2.2 1.8 1.4 2.8 3 2.8 4.9v50.3c0 4-1.8 7.5-5.2 10.3-3.5 2.7-7.6 4-12.4 4l-53.2.2z" style="fill:#dbb778"/></svg>