<?xml version="1.0" encoding="UTF-8"?>
<!-- Created with Inkscape (http://www.inkscape.org/) -->
<svg width="129.29mm" height="102.81mm" version="1.1" viewBox="0 0 129.29 102.81" xml:space="preserve" xmlns="http://www.w3.org/2000/svg"><defs><clipPath id="clipPath5951"><path d="m0 792h612v-792h-612z"/></clipPath></defs><g stroke-miterlimit="10"><path d="m331.11-62.275h-82.256v82.256h82.256z" display="none" fill="#100f0d" stroke="#d8b363" stroke-width=".51153"/><path d="m105.77 10.275h-82.256v82.256h82.256z" display="none" fill="#fff" stroke="#000" stroke-width=".1"/><path d="m343.22-52.976h-106.49v63.658h106.49z" display="none" fill="#100f0d" stroke="#d8b363" stroke-width=".51153"/></g><g transform="matrix(.35278 0 0 -.35278 333 3.513)" display="none"><path d="m0 0-121.95-69.902-121.95 69.902v139.8l121.95 69.902 121.95-69.902z" fill="#100f0d"/></g><g transform="matrix(.35278 0 0 -.35278 333 3.513)" display="none"><path d="m0 0-121.95-69.902-121.95 69.902v139.8l121.95 69.902 121.95-69.902z" fill="none" stroke="#d8b363" stroke-miterlimit="10" stroke-width="1.45"/></g><g transform="matrix(.35278 0 0 -.35278 316.34 -44.646)" display="none"><path d="m0 0-74.743 17.102-75.459-17.102-120.18-28.052v-81.514l195.64-40.756 195.64 40.756v81.514z" fill="#100f0d"/></g><g transform="matrix(.35278 0 0 -.35278 316.34 -44.646)" display="none"><path d="m0 0-74.743 17.102-75.459-17.102-120.18-28.052v-81.514l195.64-40.756 195.64 40.756v81.514z" fill="none" stroke="#d8b363" stroke-miterlimit="10" stroke-width="1.45"/></g><g><g transform="matrix(.35278 0 0 -.35278 88.652 26.037)" display="none" fill="none" stroke-width=".998"><path d="m0 0-68.051 18.461-68.702-18.461-109.42-30.281v-87.991l178.12-43.996 178.12 43.996v87.991z" fill="none"/></g><g transform="matrix(.35278 0 0 -.35278 88.652 26.037)" display="none" stroke-width="1.4598"><path d="m0 0-68.051 18.461-68.702-18.461-109.42-30.281v-87.991l178.12-43.996 178.12 43.996v87.991z" display="inline" fill="none" stroke="#000" stroke-miterlimit="10" stroke-width=".28346"/></g><g transform="matrix(.35278 0 0 -.35278 -43.592 140.41)" display="none" stroke-width=".998"><g clip-path="url(#clipPath5951)" display="inline" stroke-width=".998"><g transform="translate(139.04 590.13)" display="none"><path d="m0 0h-0.099c-1.72 0-3.207 0.484-4.463 1.452-1.189 1.022-1.785 2.259-1.785 3.712v36.145c0 1.398 0.596 2.608 1.785 3.63 1.256 1.021 2.777 1.533 4.562 1.533h19.041c1.718 0 3.206-0.512 4.462-1.533 1.256-1.022 1.885-2.232 1.885-3.63v-8.068c0.065-0.593 0.362-1.104 0.892-1.533 0.595-0.484 1.354-0.727 2.281-0.727h-12.694c0.859 0 1.587 0.243 2.182 0.727 0.529 0.429 0.859 0.94 0.992 1.533v5.728c-0.133 0.591-0.463 1.102-0.992 1.533-0.53 0.484-1.157 0.752-1.884 0.807h-13.289c-0.793-0.055-1.455-0.323-1.983-0.807-0.53-0.431-0.828-0.942-0.893-1.533v-31.546c0.065-0.592 0.363-1.104 0.893-1.533 0.528-0.431 1.19-0.673 1.983-0.726h13.289c0.727 0.053 1.354 0.295 1.884 0.726 0.529 0.429 0.859 0.941 0.992 1.533v13.231h-9.818c-0.793-0.054-1.455-0.322-1.983-0.806-0.595-0.485-0.893-1.077-0.893-1.775v10.327c0-0.754 0.298-1.372 0.893-1.856 0.528-0.431 1.19-0.673 1.983-0.726h12.991c0.859 0 1.587-0.27 2.182-0.807 0.66-0.484 0.992-1.076 0.992-1.775v-18.072c0-1.453-0.629-2.69-1.885-3.712-1.256-0.968-2.744-1.452-4.462-1.452z" fill="#d8b363"/></g><g transform="translate(167.61 590.13)" display="none"><path d="m0 0c0.86 0 1.586 0.242 2.182 0.726 0.529 0.43 0.827 0.941 0.892 1.533v41.873c-0.065 0.592-0.363 1.102-0.892 1.534-0.596 0.537-1.322 0.806-2.182 0.806h34.808v-7.745c0 0.698-0.331 1.291-0.992 1.775-0.529 0.484-1.157 0.752-1.884 0.807h-22.511v-15.491h16.164c0.727 0.053 1.355 0.295 1.885 0.726 0.66 0.484 0.991 1.102 0.991 1.856v-10.327c0 0.698-0.331 1.29-0.991 1.775-0.53 0.484-1.158 0.752-1.885 0.806h-16.164v-15.49h22.511c0.727 0.053 1.355 0.295 1.884 0.726 0.661 0.484 0.992 1.102 0.992 1.856v-7.746z" fill="#d8b363"/></g><g transform="translate(205.69 590.13)" display="none"><path d="m0 0c0.86 0 1.586 0.242 2.182 0.726 0.529 0.43 0.827 0.941 0.892 1.533v41.873c-0.065 0.592-0.363 1.102-0.892 1.534-0.596 0.537-1.322 0.806-2.182 0.806h34.808v-7.745c0 0.698-0.331 1.291-0.992 1.775-0.529 0.484-1.157 0.752-1.884 0.807h-22.511v-15.491h16.164c0.727 0.053 1.355 0.295 1.885 0.726 0.66 0.484 0.991 1.102 0.991 1.856v-10.327c0 0.698-0.331 1.29-0.991 1.775-0.53 0.484-1.158 0.752-1.885 0.806h-16.164v-15.49h22.511c0.727 0.053 1.355 0.295 1.884 0.726 0.661 0.484 0.992 1.102 0.992 1.856v-7.746z" fill="#d8b363"/></g><g transform="translate(243.77 590.13)" display="none"><path d="m0 0c0.86 0 1.587 0.242 2.182 0.726 0.529 0.43 0.827 0.941 0.892 1.533v41.873c-0.065 0.592-0.363 1.102-0.892 1.534-0.595 0.537-1.322 0.806-2.182 0.806h12.595c-0.927 0-1.686-0.269-2.282-0.806-0.529-0.432-0.827-0.942-0.892-1.534v-18.314l6.347 5.083v0.08l6.347 5.083v0.081l6.346 5.083v2.904c-0.132 0.592-0.462 1.102-0.991 1.534-0.595 0.537-1.323 0.806-2.182 0.806h12.694c-0.926 0-1.686-0.269-2.281-0.806-0.53-0.432-0.827-0.942-0.892-1.534v-5.405l-3.174-2.582h-0.099l-3.075-2.582-3.173-2.582h-0.099l-3.074-2.581-3.174-2.582 3.174-2.582v-0.081l3.074-2.501h0.099l3.173-2.581v-0.081l3.075-2.501h0.099l3.174-2.582v-10.65c0.065-0.592 0.362-1.103 0.892-1.533 0.595-0.484 1.355-0.726 2.281-0.726h-12.694c0.859 0 1.587 0.242 2.182 0.726 0.529 0.43 0.859 0.941 0.991 1.533v8.068l-6.346 5.164-6.347 5.163h-3.272l-3.075-2.581v-15.814c0.065-0.592 0.363-1.103 0.892-1.533 0.596-0.484 1.355-0.726 2.282-0.726z" fill="#d8b363"/></g><g transform="translate(281.75 590.13)" display="none"><path d="m0 0c0.86 0 1.587 0.242 2.182 0.726 0.529 0.43 0.827 0.941 0.892 1.533v41.873c-0.065 0.592-0.363 1.102-0.892 1.534-0.595 0.537-1.322 0.806-2.182 0.806h9.421v-0.08l3.173-5.083 3.174-5.164v-0.081l3.173-5.083 3.174-5.163v-0.081l3.173-5.083 3.174-5.163v28.641c-0.134 0.592-0.464 1.102-0.992 1.534-0.595 0.537-1.324 0.806-2.182 0.806h12.693c-0.925 0-1.685-0.269-2.28-0.806-0.53-0.432-0.827-0.942-0.892-1.534v-41.873c0.065-0.592 0.362-1.103 0.892-1.533 0.595-0.484 1.355-0.726 2.28-0.726h-12.693c0.858 0 1.587 0.242 2.182 0.726 0.528 0.43 0.858 0.941 0.992 1.533v2.905l-3.174 5.163-3.173 5.164-3.174 5.163-3.173 5.164-3.174 5.163-3.173 5.083v-33.805c0.065-0.592 0.363-1.103 0.892-1.533 0.596-0.484 1.355-0.726 2.281-0.726z" fill="#d8b363"/></g><g transform="translate(319.73 590.13)" display="none"><path d="m0 0c0.86 0 1.587 0.242 2.182 0.726 0.53 0.43 0.827 0.941 0.892 1.533v41.873c-0.065 0.592-0.362 1.102-0.892 1.534-0.595 0.537-1.322 0.806-2.182 0.806h12.595c-0.927 0-1.686-0.269-2.282-0.806-0.529-0.432-0.827-0.942-0.892-1.534v-41.873c0.065-0.592 0.363-1.103 0.892-1.533 0.596-0.484 1.355-0.726 2.282-0.726z" fill="#d8b363"/></g><g transform="translate(341.85 590.13)" display="none"><path d="m0 0h-0.1c-1.719 0-3.207 0.484-4.462 1.452-1.19 1.022-1.785 2.259-1.785 3.712v36.145c0 1.398 0.595 2.608 1.785 3.63 1.255 1.021 2.777 1.533 4.562 1.533h19.04c1.719 0 3.206-0.512 4.462-1.533 1.257-1.022 1.885-2.232 1.885-3.63v-8.068c0.066-0.593 0.363-1.104 0.892-1.533 0.595-0.484 1.356-0.727 2.282-0.727h-12.695c0.86 0 1.587 0.243 2.182 0.727 0.529 0.429 0.859 0.94 0.992 1.533v5.728c-0.133 0.591-0.463 1.102-0.992 1.533-0.528 0.484-1.156 0.752-1.884 0.807h-13.289c-0.793-0.055-1.454-0.323-1.982-0.807-0.531-0.431-0.828-0.942-0.893-1.533v-31.546c0.065-0.592 0.362-1.104 0.893-1.533 0.528-0.431 1.189-0.673 1.982-0.726h13.289c0.728 0.053 1.356 0.295 1.884 0.726 0.529 0.429 0.859 0.941 0.992 1.533v13.231h-9.818c-0.793-0.054-1.454-0.322-1.984-0.806-0.594-0.485-0.892-1.077-0.892-1.775v10.327c0-0.754 0.298-1.372 0.892-1.856 0.53-0.431 1.191-0.673 1.984-0.726h12.991c0.859 0 1.587-0.27 2.182-0.807 0.661-0.484 0.992-1.076 0.992-1.775v-18.072c0-1.453-0.628-2.69-1.885-3.712-1.256-0.968-2.743-1.452-4.462-1.452z" fill="#d8b363"/></g><g transform="translate(370.41 590.13)" display="none"><path d="m0 0c0.859 0 1.586 0.242 2.182 0.726 0.529 0.43 0.827 0.941 0.892 1.533v41.873c-0.065 0.592-0.363 1.102-0.892 1.534-0.596 0.537-1.323 0.806-2.182 0.806h12.594c-0.926 0-1.686-0.269-2.281-0.806-0.53-0.432-0.827-0.942-0.892-1.534v-18.314h19.04v18.314c-0.133 0.592-0.464 1.102-0.991 1.534-0.596 0.537-1.324 0.806-2.182 0.806h12.693c-0.926 0-1.686-0.269-2.281-0.806-0.529-0.432-0.827-0.942-0.892-1.534v-41.873c0.065-0.592 0.363-1.103 0.892-1.533 0.595-0.484 1.355-0.726 2.281-0.726h-12.693c0.858 0 1.586 0.242 2.182 0.726 0.527 0.43 0.858 0.941 0.991 1.533v18.395h-19.04v-18.395c0.065-0.592 0.362-1.103 0.892-1.533 0.595-0.484 1.355-0.726 2.281-0.726z" fill="#d8b363"/></g><g transform="translate(420.98 590.13)" display="none"><path d="m0 0c0.858 0 1.586 0.242 2.182 0.726 0.527 0.43 0.858 0.941 0.991 1.533v39.05h-9.818c-0.793-0.055-1.455-0.323-1.983-0.807-0.595-0.484-0.893-1.077-0.893-1.775v7.745h31.735v-7.745c0 0.698-0.332 1.291-0.992 1.775-0.53 0.484-1.158 0.752-1.884 0.807h-9.818v-39.05c0.065-0.592 0.363-1.103 0.892-1.533 0.596-0.484 1.355-0.726 2.281-0.726z" fill="#d8b363"/></g><g transform="translate(455.79 590.13)" display="none"><path d="m0 0h-0.099c-1.719 0-3.207 0.484-4.463 1.452-1.19 1.022-1.785 2.259-1.785 3.712v7.987c-0.065 0.591-0.362 1.102-0.892 1.533-0.595 0.537-1.322 0.807-2.182 0.807h12.595c-0.927 0-1.686-0.27-2.281-0.807-0.53-0.431-0.828-0.942-0.893-1.533v-5.728c0.065-0.592 0.363-1.104 0.893-1.533 0.528-0.431 1.19-0.673 1.983-0.726h13.289c0.727 0.053 1.355 0.295 1.884 0.726 0.528 0.429 0.859 0.941 0.992 1.533v10.891c-0.133 0.592-0.464 1.103-0.992 1.534-0.529 0.484-1.157 0.752-1.884 0.806h-16.264c-1.719 0-3.207 0.484-4.463 1.452-1.19 1.022-1.785 2.26-1.785 3.712v15.491c0 1.398 0.595 2.608 1.785 3.63 1.256 1.021 2.777 1.533 4.562 1.533h19.041c1.718 0 3.205-0.512 4.462-1.533 1.256-1.022 1.885-2.232 1.885-3.63v-8.068c0.065-0.593 0.362-1.104 0.892-1.533 0.595-0.484 1.355-0.727 2.281-0.727h-12.694c0.859 0 1.587 0.243 2.182 0.727 0.528 0.429 0.859 0.94 0.992 1.533v5.728c-0.133 0.591-0.464 1.102-0.992 1.533-0.529 0.484-1.157 0.752-1.884 0.807h-13.289c-0.793-0.055-1.455-0.323-1.983-0.807-0.53-0.431-0.828-0.942-0.893-1.533v-10.892c0.065-0.592 0.363-1.103 0.893-1.533 0.528-0.431 1.19-0.673 1.983-0.726h16.165c1.718 0 3.205-0.512 4.462-1.533 1.256-1.023 1.885-2.233 1.885-3.631v-15.49c0-1.453-0.629-2.69-1.885-3.712-1.257-0.968-2.744-1.452-4.462-1.452z" fill="#d8b363"/></g><g transform="translate(428.77 182.41)" display="inline"><path d="m0 0-121.95-69.901-121.95 69.901v139.8l121.95 69.902 121.95-69.902z" fill="#fff"/></g><g transform="translate(428.77 182.41)" display="inline"><path d="m0 0-121.95-69.901-121.95 69.901v139.8l121.95 69.902 121.95-69.902z" display="inline" fill="none" stroke="#000" stroke-miterlimit="10" stroke-width=".28346"/></g><g transform="translate(275.92 187.67)" display="inline"><path d="m0 0h-0.276c-4.784 0-8.922 1.347-12.414 4.04-3.311 2.841-4.966 6.284-4.966 10.324v100.55c0 3.889 1.655 7.255 4.966 10.1 3.492 2.841 7.724 4.264 12.69 4.264h52.967c4.781 0 8.919-1.423 12.414-4.264 3.492-2.845 5.242-6.211 5.242-10.1v-22.444c0.182-1.648 1.009-3.069 2.482-4.264 1.656-1.347 3.768-2.02 6.345-2.02h-35.311c2.388 0 4.414 0.673 6.069 2.02 1.471 1.195 2.389 2.616 2.759 4.264v15.935c-0.37 1.645-1.288 3.066-2.759 4.265-1.474 1.347-3.22 2.093-5.241 2.244h-36.967c-2.207-0.151-4.047-0.897-5.518-2.244-1.473-1.199-2.301-2.62-2.482-4.265v-87.756c0.181-1.647 1.009-3.069 2.482-4.264 1.471-1.198 3.311-1.872 5.518-2.02h36.967c2.021 0.148 3.767 0.822 5.241 2.02 1.471 1.195 2.389 2.617 2.759 4.264v36.808h-27.311c-2.207-0.151-4.048-0.897-5.518-2.244-1.655-1.347-2.483-2.994-2.483-4.938v28.729c0-2.097 0.828-3.815 2.483-5.162 1.47-1.199 3.311-1.872 5.518-2.021h36.139c2.389 0 4.414-0.75 6.069-2.244 1.837-1.347 2.759-2.994 2.759-4.937v-50.275c0-4.04-1.75-7.483-5.242-10.324-3.495-2.693-7.633-4.04-12.414-4.04z" display="inline" opacity=".29563"/></g></g></g></g><g transform="translate(.7 .80683)"><g fill="none" stroke="#000" stroke-width="3.615"><path d="m106.97 75.256v-49.32l-43.022-24.66-43.023 24.66v49.32l43.023 24.66z"/><path d="m20.923 30.429-19.815 5.4837v31.041l19.815 4.8943z"/><path d="m106.97 71.848 19.815-4.8944v-31.041l-19.815-5.4513z"/><path d="m105.12 76.313-0.05 15.411-26.837 2e-6z"/><path d="m105.12 24.879-0.05-15.412-26.837 5.3e-6z"/><path d="m22.817 24.851v-15.383l26.929-0.050005z"/><path d="m22.817 76.342v15.382h26.837z"/></g><g><path d="m53.045 73.399h-0.09737c-1.6877 0-3.1475-0.47519-4.3794-1.4252-1.168-1.0022-1.7519-2.2169-1.7519-3.6421v-35.471c0-1.372 0.58385-2.5594 1.7519-3.5631 1.2319-1.0022 2.7249-1.5042 4.4768-1.5042h18.686c1.6866 0 3.1464 0.502 4.3794 1.5042 1.2319 1.0037 1.8493 2.1911 1.8493 3.5631v7.9177c0.06421 0.58138 0.35595 1.0827 0.8756 1.5042 0.5842 0.47519 1.3293 0.71261 2.2384 0.71261h-12.457c0.84243 0 1.5572-0.23742 2.141-0.71261 0.51894-0.42157 0.84279-0.92287 0.97331-1.5042v-5.6215c-0.13053-0.58032-0.45438-1.0816-0.97331-1.5046-0.51999-0.47519-1.1359-0.73836-1.8489-0.79163h-13.041c-0.77858 0.05327-1.4277 0.31644-1.9466 0.79163-0.51964 0.42298-0.81174 0.92428-0.87559 1.5046v30.958c0.06385 0.58102 0.35595 1.0827 0.87559 1.5042 0.51894 0.42263 1.168 0.6604 1.9466 0.71261h13.041c0.71296-0.05221 1.3289-0.28998 1.8489-0.71261 0.51894-0.42157 0.84279-0.92322 0.97331-1.5042v-12.985h-9.6347c-0.77858 0.05327-1.428 0.31644-1.9466 0.79163-0.58385 0.47519-0.87595 1.0562-0.87595 1.742v-10.135c0 0.73978 0.2921 1.3458 0.87595 1.821 0.51858 0.42298 1.168 0.6604 1.9466 0.71296h12.749c0.84279 0 1.5572 0.26458 2.141 0.79163 0.64805 0.47519 0.97331 1.0562 0.97331 1.7417v17.736c0 1.4252-0.61736 2.6398-1.8493 3.6421-1.233 0.95003-2.6928 1.4252-4.3794 1.4252z"/></g></g></svg>
