<?xml version="1.0" encoding="UTF-8"?>
<!-- Created with Inkscape (http://www.inkscape.org/) -->
<svg width="503.4mm" height="364.56mm" version="1.1" viewBox="0 0 503.4 364.56" xml:space="preserve" xmlns="http://www.w3.org/2000/svg"><g transform="translate(-14.352 -11.272)"><path transform="scale(1.1077 .90273)" d="m409.26 246.97h-0.11397q-2.9632 0-5.1287-2.0515-2.0515-2.1654-2.0515-5.2427v-11.283q-0.11397-1.2537-1.0257-2.1654-1.0257-1.1397-2.5074-1.1397h14.474q-1.5956 0-2.6213 1.1397-0.91177 0.91177-1.0257 2.1654v8.0919q0.11397 1.2537 1.0257 2.1654 0.91176 0.91176 2.2794 1.0257h15.272q1.2537-0.11397 2.1654-1.0257 0.91176-0.91177 1.1397-2.1654v-15.386q-0.22795-1.2537-1.1397-2.1654-0.91177-1.0257-2.1654-1.1397h-18.691q-2.9632 0-5.1287-2.0515-2.0515-2.1654-2.0515-5.2426v-21.882q0-2.9632 2.0515-5.1287 2.1654-2.1654 5.2426-2.1654h21.882q2.9632 0 5.1287 2.1654 2.1654 2.1654 2.1654 5.1287v11.397q0.11397 1.2537 1.0257 2.1654 1.0257 1.0257 2.6213 1.0257h-14.588q1.4816 0 2.5074-1.0257 0.91176-0.91176 1.1397-2.1654v-8.0919q-0.22795-1.2537-1.1397-2.1654-0.91177-1.0257-2.1654-1.1397h-15.272q-1.3676 0.11397-2.2794 1.1397-0.91177 0.91177-1.0257 2.1654v15.386q0.11397 1.2537 1.0257 2.1654 0.91176 0.91176 2.2794 1.0257h18.577q2.9632 0 5.1287 2.1654 2.1654 2.1654 2.1654 5.1287v21.882q0 3.0772-2.1654 5.2427-2.1654 2.0515-5.1287 2.0515zm-40.004 0q1.4816 0 2.5074-1.0257 0.91176-0.91176 1.1397-2.1654v-55.162h-11.283q-1.3676 0.11397-2.2794 1.1397-1.0257 1.0257-1.0257 2.5074v-10.941h36.471v10.941q0-1.4816-1.1397-2.5074-0.91176-1.0257-2.1654-1.1397h-11.283v55.162q0.11397 1.2537 1.0257 2.1654 1.0257 1.0257 2.6213 1.0257zm-58.125 0q1.4816 0 2.5074-1.0257 0.91176-0.91176 1.0257-2.1654v-59.151q-0.11397-1.2537-1.0257-2.1654-1.0257-1.1397-2.5074-1.1397h14.474q-1.5956 0-2.6213 1.1397-0.91177 0.91176-1.0257 2.1654v25.871h21.882v-25.871q-0.22794-1.2537-1.1397-2.1654-1.0257-1.1397-2.5074-1.1397h14.588q-1.5956 0-2.6213 1.1397-0.91177 0.91176-1.0257 2.1654v59.151q0.11397 1.2537 1.0257 2.1654 1.0257 1.0257 2.6213 1.0257h-14.588q1.4816 0 2.5074-1.0257 0.91176-0.91176 1.1397-2.1654v-25.985h-21.882v25.985q0.11397 1.2537 1.0257 2.1654 1.0257 1.0257 2.6213 1.0257zm-32.824 0h-0.11397q-2.9632 0-5.1287-2.0515-2.0515-2.1654-2.0515-5.2427v-51.059q0-2.9632 2.0515-5.1287 2.1654-2.1654 5.2426-2.1654h21.882q2.9632 0 5.1287 2.1654 2.1654 2.1654 2.1654 5.1287v11.397q0.11397 1.2537 1.0257 2.1654 1.0257 1.0257 2.6213 1.0257h-14.588q1.4816 0 2.5074-1.0257 0.91176-0.91176 1.1397-2.1654v-8.0919q-0.22794-1.2537-1.1397-2.1654-0.91177-1.0257-2.1654-1.1397h-15.272q-1.3676 0.11397-2.2794 1.1397-0.91177 0.91177-1.0257 2.1654v44.563q0.11397 1.2537 1.0257 2.1654 0.91176 0.91176 2.2794 1.0257h15.272q1.2537-0.11397 2.1654-1.0257 0.91176-0.91177 1.1397-2.1654v-18.691h-11.283q-1.3676 0.11397-2.2794 1.1397-1.0257 1.0257-1.0257 2.5074v-14.588q0 1.5956 1.0257 2.6213 0.91177 0.91176 2.2794 1.0257h14.93q1.4816 0 2.5074 1.1397 1.1397 1.0257 1.1397 2.5074v25.529q0 3.0772-2.1654 5.2427-2.1654 2.0515-5.1287 2.0515zm-25.242 0.01q1.46 0 2.4707-1.026 0.89843-0.91204 1.0107-2.1661v-59.169q-0.11231-1.254-1.0107-2.1661-1.0107-1.14-2.4707-1.14h14.263q-1.5723 0-2.583 1.14-0.89844 0.91204-1.0107 2.1661v59.169q0.1123 1.254 1.0107 2.1661 1.0107 1.026 2.583 1.026zm-43.38-1e-3q1.4644 0 2.4781-1.026 0.90115-0.912 1.0138-2.166v-59.166q-0.11263-1.254-1.0138-2.166-1.0138-1.14-2.4781-1.14h10.701v0.114l3.6046 7.182 3.6046 7.296v0.114l3.6046 7.182 3.6046 7.296v0.114l3.6046 7.182 3.6046 7.296v-40.47q-0.22528-1.254-1.1264-2.166-1.0138-1.14-2.4781-1.14h14.418q-1.577 0-2.5908 1.14-0.90114 0.91201-1.0138 2.166v59.166q0.11264 1.254 1.0138 2.166 1.0138 1.026 2.5908 1.026h-14.418q1.4644 0 2.4781-1.026 0.90114-0.912 1.1264-2.166v-4.104l-18.023-36.48-3.6046-7.182v47.766q0.11264 1.254 1.0138 2.166 1.0138 1.026 2.5908 1.026zm-44.145-2e-3q1.4902 0 2.5219-1.0257 0.91706-0.91178 1.0317-2.1655v-59.151q-0.11464-1.2537-1.0317-2.1654-1.0317-1.1397-2.5219-1.1397h14.558q-1.6049 0-2.6366 1.1397-0.91706 0.91176-1.0317 2.1654v25.871l7.3365-7.1802v-0.11397l7.3365-7.1802v-0.11397l7.3365-7.1802v-4.103q-0.22926-1.2537-1.1463-2.1654-1.0317-1.1397-2.5219-1.1397h14.673q-1.6048 0-2.6366 1.1397-0.91706 0.91176-1.0317 2.1654v7.6361l-3.6683 3.6471h-0.11463l-3.5536 3.6471-3.6682 3.6471h-0.11463l-3.5536 3.6471-3.6682 3.6471 3.6682 3.6471v0.11397l3.5536 3.5331h0.11463l3.6682 3.6471v0.11397l3.5536 3.5331h0.11463l3.6683 3.6471v15.044q0.11463 1.2537 1.0317 2.1655 1.0317 1.0257 2.6366 1.0257h-14.673q1.4902 0 2.5219-1.0257 0.91706-0.91178 1.1463-2.1655v-11.397l-14.673-14.588h-3.7829l-3.5536 3.6471v22.338q0.11463 1.2537 1.0317 2.1655 1.0317 1.0257 2.6366 1.0257zm-43.257 4.2e-4q1.468 0 2.4843-1.0258 0.90338-0.91178 1.0163-2.1655v-59.152q-0.11292-1.2537-1.0163-2.1655-1.0163-1.1397-2.4843-1.1397h39.636v10.941q0-1.4816-1.1292-2.5074-0.90338-1.0258-2.1455-1.1397h-25.633v21.883h18.406q1.2422-0.11396 2.1455-1.0258 1.1292-1.0258 1.1292-2.6214v14.589q0-1.4816-1.1292-2.5074-0.90337-1.0258-2.1455-1.1397h-18.406v21.883h25.633q1.2422-0.11396 2.1455-1.0258 1.1292-1.0258 1.1292-2.6214v10.941zm-43.68-1e-5q1.468 0 2.4843-1.0258 0.90338-0.91178 1.0163-2.1655v-59.152q-0.11292-1.2537-1.0163-2.1655-1.0163-1.1397-2.4843-1.1397h39.636v10.941q0-1.4816-1.1292-2.5074-0.90338-1.0258-2.1455-1.1397h-25.633v21.882h18.406q1.2422-0.11396 2.1455-1.0258 1.1292-1.0257 1.1292-2.6214v14.589q0-1.4816-1.1292-2.5074-0.90338-1.0258-2.1455-1.1397h-18.406v21.883h25.633q1.2421-0.11397 2.1455-1.0258 1.1292-1.0257 1.1292-2.6214v10.941zm-33.181-9.4e-4h-0.11438q-2.9738 0-5.1469-2.0514-2.0588-2.1654-2.0588-5.2426v-51.058q0-2.9632 2.0588-5.1286 2.1732-2.1654 5.2613-2.1654h21.96q2.9738 0 5.1469 2.1654 2.1732 2.1654 2.1732 5.1286v11.397q0.11438 1.2537 1.0294 2.1654 1.0294 1.0257 2.6307 1.0257h-14.64q1.4869 0 2.5163-1.0257 0.91501-0.91176 1.1438-2.1654v-8.0918q-0.22875-1.2537-1.1438-2.1654-0.91501-1.0257-2.1732-1.1397h-15.326q-1.3725 0.11397-2.2875 1.1397-0.91501 0.91176-1.0294 2.1654v44.562q0.11438 1.2537 1.0294 2.1654 0.91501 0.91175 2.2875 1.0257h15.326q1.2581-0.11397 2.1732-1.0257t1.1438-2.1654v-18.691h-11.323q-1.3725 0.11396-2.2875 1.1397-1.0294 1.0257-1.0294 2.5073v-14.588q0 1.5956 1.0294 2.6213 0.91501 0.91176 2.2875 1.0257h14.983q1.4869 0 2.5163 1.1397 1.1438 1.0257 1.1438 2.5073v25.529q0 3.0772-2.1732 5.2426-2.1732 2.0514-5.1469 2.0514zm194.71-226.75-137.58 97.564v13.808l137.58-38.827 137.58 38.881v-13.861zm55.745 32.045 44.356 31.365h31.428l-0.4539-31.365zm-187.28 0.14655v31.219h31.427l44.021-31.219zm-39.531 37.085v51.545l28.698-8.0989v-19.343l33.988-24.103zm279.43 0 33.988 24.103v19.398l28.706 8.538v-52.039zm-108.37 9.526-222.26 62.725v111.03l222.26 56.572 222.34-56.608v-110.88zm171.07 193.03-28.706 7.3084 0.15627 15.719-33.414 23.697h61.964zm-342.13 0.0114v46.713h61.956l-33.259-23.586v-15.822zm308.64 8.5151-137.58 35.026-137.58-35.018v10.289l137.58 97.566 137.58-97.568zm-269.11 44.069v31.303h74.843l-44.14-31.303zm232.36 0-44.14 31.303h74.843v-31.303zm-327.86-66.832v-120.97l51.187-14.446v-58.763h39.535v-37.089h88.511l47.803-33.9 47.802 33.9h88.511v37.089h39.54v58.833l51.277 14.491v120.82l-51.277 13.055v53.814h-39.54v37.177h-87.911l-48.403 34.327-48.404-34.327h-87.911v-37.177h-39.535v-53.803z" stroke="#000" stroke-width=".26686"/></g></svg>
